<svg width="166" height="34" viewBox="0 0 166 34" fill="none" xmlns="http://www.w3.org/2000/svg">
<g clip-path="url(#clip0_17_921)">
<path fill-rule="evenodd" clip-rule="evenodd" d="M37.9357 12.1026C37.9803 11.7552 38.0017 11.405 37.9997 11.0546C38.0024 10.6932 37.981 10.332 37.9357 9.97357C37.6983 8.38949 36.9784 6.92387 35.8795 5.78796C35.2768 5.15089 34.5808 4.61488 33.8169 4.1994C33.3245 3.89442 32.7974 3.6531 32.2475 3.48093C30.8442 3.12479 29.4006 2.96515 27.9558 3.00634H26.8092L9.07867 3.0393H0.379938C0.174752 3.0393 0.00841584 3.21046 0.00841584 3.42161V4.54216C0.00794241 4.73979 0.156331 4.90401 0.34791 4.91788H0.591321C0.82192 4.9838 1.05252 4.9838 1.28953 4.9838C1.82316 4.99415 2.35481 5.05371 2.8781 5.16177C3.08554 5.20475 3.28466 5.2827 3.46741 5.39247C3.7388 5.63081 3.9013 5.97481 3.9158 6.34165C3.98942 6.94724 4.02366 7.55721 4.01829 8.1675V13.5528C4.01829 13.9087 4.01829 14.2712 4.01829 14.5942C4.01829 14.9765 4.01829 15.3391 4.01829 15.5961C4.05346 16.028 3.91712 16.456 3.64036 16.7826C3.32992 16.9454 2.9823 17.0184 2.63469 16.9935H2.50658C2.19911 16.9935 1.9493 16.9935 1.68667 16.9935C1.42404 16.9935 1.04611 16.9935 0.57851 17.0397H0.335099C0.229132 17.0521 0.133205 17.11 0.0709827 17.1992C0.0087605 17.2883 -0.0139637 17.4004 0.00841584 17.5077V18.6282C0.0110127 18.8282 0.160628 18.9936 0.354315 19.0105H0.591321C0.950031 19.0435 1.23188 19.0435 1.57778 19.0435H2.30801H2.90372H2.95497C3.32649 19.0435 3.6852 19.0765 3.86456 19.5181C3.91238 19.6351 3.93845 19.7603 3.94142 19.8872V19.9795C3.94142 20.3486 3.99907 20.7243 4.00548 21.1001C4.01188 21.4758 4.00548 21.7592 4.00548 22.0822V25.6087C4.00548 25.8591 4.00548 26.1162 4.00548 26.3799C4.03388 27.1577 4.02319 27.9365 3.97345 28.7133C3.94317 29.2909 3.71643 29.8393 3.3329 30.2623C2.91831 30.6322 2.38912 30.8379 1.8404 30.8423H1.50091H1.28953H0.853948C0.674593 30.8423 0.501643 30.8423 0.335099 30.8885H0.200582C0.0276325 30.8885 0.0276325 31.073 0.0276325 31.1389C0.00840287 31.2074 0.00188351 31.2789 0.00841584 31.3499V32.6154C0.00821569 32.6994 0.0404782 32.78 0.0980935 32.8395C0.219665 32.9372 0.374501 32.98 0.527265 32.9582H26.6747C27.2512 32.9582 27.9558 32.9582 28.5964 32.9582H28.8334C29.5291 32.9643 30.2244 32.9247 30.9152 32.8395C31.3781 32.7787 31.8348 32.675 32.2796 32.5297C32.8175 32.3446 33.3366 32.1062 33.8297 31.8179C34.5883 31.3892 35.2794 30.8447 35.8795 30.2029C36.9784 29.067 37.6983 27.6014 37.9357 26.0173C37.9803 25.6699 38.0017 25.3197 37.9997 24.9693C38.0027 24.6078 37.9813 24.2466 37.9357 23.8883C37.6051 21.7766 36.4474 19.8968 34.7329 18.6876L33.7849 17.9954L34.7329 17.3363C36.4571 16.1217 37.6163 14.2275 37.9357 12.1026ZM34.598 21.3901C35.4362 22.3722 35.9262 23.6177 35.988 24.9232C35.9372 26.2469 35.4465 27.5127 34.598 28.509C34.1071 29.1011 33.5197 29.6007 32.8621 29.9855C32.6709 30.0931 32.4742 30.1899 32.2728 30.2755C30.7739 30.9347 29.07 30.8951 27.4046 30.8556H26.2964H7.5538C7.11268 30.8538 6.69039 30.6714 6.38027 30.3485C6.07016 30.0257 5.89776 29.5891 5.90117 29.1352V19.907C5.90811 19.4415 6.27503 19.0669 6.72748 19.0633H14.7793C16.7458 19.0633 18.93 19.0633 21.0439 19.0633H26.4053H27.411C28.813 18.9579 30.2224 19.0802 31.5874 19.4259C32.7714 19.7392 33.8279 20.4317 34.6044 21.4033L34.598 21.3901ZM32.8941 16.0575C31.4272 16.9078 29.5696 16.9144 28.2116 16.9144C23.9519 16.9144 19.6858 16.9144 16.0411 16.9144H6.74661C6.28317 16.9144 5.90748 16.5278 5.90748 16.0509C5.90748 14.0273 5.90748 12.096 5.90748 10.3756V6.30206C5.90748 5.67955 6.39788 5.17491 7.00283 5.17491H16.9314C17.8026 5.17491 18.6865 5.17491 19.5449 5.17491H19.5769C20.9541 5.17491 22.5107 5.17491 24.0032 5.17491C24.7142 5.17491 25.4316 5.17491 26.1234 5.17491H26.1554C27.0266 5.17491 27.9233 5.14195 28.8073 5.17491C30.2614 5.23424 31.9268 5.37266 33.2271 6.2691C34.4351 7.06982 35.3395 8.27271 35.7894 9.67692C35.9226 10.1217 35.998 10.5828 36.0136 11.048V11.0875C35.9388 12.389 35.4401 13.6267 34.5979 14.6008C34.1171 15.1851 33.5404 15.6781 32.8941 16.0575Z" fill="#573BA3"/>
<path d="M49.38 31C49.1 31 48.96 30.86 48.96 30.58C48.96 30.3 49.1 30.16 49.38 30.16C50.42 30.16 51.12 30.01 51.48 29.71C51.84 29.39 52.02 28.93 52.02 28.33V11.86C52.02 11.26 51.84 10.81 51.48 10.51C51.14 10.21 50.42 10.06 49.32 10.06C49.06 10.06 48.93 9.92 48.93 9.64C48.93 9.36 49.06 9.22 49.32 9.22C49.5 9.22 50.01 9.24 50.85 9.28C51.71 9.3 52.71 9.31 53.85 9.31C55.95 9.31 57.66 9.3 58.98 9.28C60.3 9.24 61.17 9.22 61.59 9.22C62.77 9.22 63.79 9.43 64.65 9.85C65.53 10.27 66.21 10.85 66.69 11.59C67.17 12.31 67.41 13.14 67.41 14.08C67.41 15.24 67.14 16.19 66.6 16.93C66.08 17.65 65.42 18.22 64.62 18.64C63.82 19.06 63.03 19.39 62.25 19.63C62.75 19.63 63.34 19.72 64.02 19.9C64.7 20.08 65.37 20.37 66.03 20.77C66.69 21.17 67.23 21.72 67.65 22.42C68.09 23.1 68.31 23.96 68.31 25C68.31 26.32 67.98 27.43 67.32 28.33C66.66 29.21 65.74 29.88 64.56 30.34C63.4 30.78 62.04 31 60.48 31C60.26 31 60.02 31 59.76 31C59.5 30.98 59.14 30.97 58.68 30.97C58.24 30.97 57.63 30.97 56.85 30.97C56.07 30.95 55.05 30.94 53.79 30.94C52.63 30.94 51.65 30.95 50.85 30.97C50.07 30.99 49.58 31 49.38 31ZM56.34 30.1H59.49C61.09 30.1 62.26 29.62 63 28.66C63.76 27.7 64.14 26.48 64.14 25C64.14 23.62 63.74 22.47 62.94 21.55C62.16 20.61 60.92 20.14 59.22 20.14H55.68V29.47C55.68 29.65 55.72 29.8 55.8 29.92C55.9 30.04 56.08 30.1 56.34 30.1ZM55.68 19.09H59.28C62.02 19.09 63.39 17.46 63.39 14.2C63.39 13.02 63.11 12.05 62.55 11.29C61.99 10.53 61.01 10.15 59.61 10.15H55.68V19.09ZM75.3211 31.36C74.0211 31.36 72.9411 31.06 72.0811 30.46C71.2411 29.86 70.8211 28.86 70.8211 27.46C70.8211 26.28 71.1811 25.31 71.9011 24.55C72.6411 23.77 73.6711 23.2 74.9911 22.84C76.3111 22.46 77.8511 22.28 79.6111 22.3V21.13C79.6111 20.05 79.4211 19.2 79.0411 18.58C78.6611 17.94 78.0511 17.62 77.2111 17.62C76.4311 17.62 75.8411 17.77 75.4411 18.07C75.0411 18.35 74.9411 18.72 75.1411 19.18C75.4611 19.86 75.4511 20.47 75.1111 21.01C74.7711 21.53 74.1911 21.79 73.3711 21.79C72.8711 21.79 72.4511 21.63 72.1111 21.31C71.7711 20.97 71.6011 20.5 71.6011 19.9C71.6011 19.3 71.8511 18.74 72.3511 18.22C72.8511 17.7 73.5311 17.28 74.3911 16.96C75.2711 16.62 76.2611 16.45 77.3611 16.45C79.1811 16.45 80.5511 16.85 81.4711 17.65C82.3911 18.45 82.8511 19.55 82.8511 20.95V27.31C82.8511 28.11 82.9311 28.63 83.0911 28.87C83.2711 29.09 83.4911 29.2 83.7511 29.2C83.9511 29.2 84.1211 29.17 84.2611 29.11C84.4211 29.03 84.5411 28.95 84.6211 28.87C84.8411 28.65 85.0611 28.66 85.2811 28.9C85.3811 29 85.4211 29.11 85.4011 29.23C85.3811 29.35 85.3311 29.47 85.2511 29.59C84.9711 30.05 84.6211 30.44 84.2011 30.76C83.8011 31.06 83.3111 31.21 82.7311 31.21C81.9911 31.21 81.3611 31.02 80.8411 30.64C80.3411 30.26 79.9911 29.67 79.7911 28.87C79.4311 29.53 78.9111 30.11 78.2311 30.61C77.5711 31.11 76.6011 31.36 75.3211 31.36ZM76.8211 29.56C77.4011 29.56 77.9011 29.4 78.3211 29.08C78.7411 28.74 79.0611 28.34 79.2811 27.88C79.5011 27.42 79.6111 26.98 79.6111 26.56V23.35C78.0311 23.31 76.7611 23.56 75.8011 24.1C74.8411 24.64 74.3611 25.59 74.3611 26.95C74.3611 27.73 74.5111 28.31 74.8111 28.69C75.1111 29.05 75.4511 29.29 75.8311 29.41C76.2311 29.51 76.5611 29.56 76.8211 29.56ZM93.9879 31.36C92.6879 31.36 91.4879 31.12 90.3879 30.64C89.3079 30.16 88.4379 29.39 87.7779 28.33C87.1179 27.25 86.7879 25.85 86.7879 24.13C86.7879 22.69 87.0879 21.39 87.6879 20.23C88.2879 19.07 89.1579 18.15 90.2979 17.47C91.4379 16.79 92.8179 16.45 94.4379 16.45C95.3179 16.45 96.1379 16.62 96.8979 16.96C97.6579 17.28 98.2779 17.72 98.7579 18.28C99.2379 18.84 99.4779 19.49 99.4779 20.23C99.4779 20.79 99.2879 21.27 98.9079 21.67C98.5479 22.05 98.0779 22.24 97.4979 22.24C96.9179 22.24 96.4779 22.1 96.1779 21.82C95.8979 21.52 95.7679 21.14 95.7879 20.68C95.8079 20.4 95.8679 20.18 95.9679 20.02C96.0879 19.84 96.2079 19.65 96.3279 19.45C96.4479 19.25 96.5079 19 96.5079 18.7C96.5079 18.48 96.3479 18.24 96.0279 17.98C95.7079 17.72 95.2479 17.59 94.6479 17.59C94.0079 17.59 93.3479 17.8 92.6679 18.22C92.0079 18.62 91.4479 19.3 90.9879 20.26C90.5479 21.2 90.3279 22.49 90.3279 24.13C90.3279 26.01 90.7379 27.41 91.5579 28.33C92.3779 29.25 93.3979 29.71 94.6179 29.71C95.4179 29.71 96.1079 29.56 96.6879 29.26C97.2879 28.96 97.7879 28.59 98.1879 28.15C98.6079 27.69 98.9079 27.24 99.0879 26.8C99.2279 26.48 99.4579 26.39 99.7779 26.53C100.098 26.65 100.188 26.88 100.048 27.22C99.8279 27.8 99.4879 28.41 99.0279 29.05C98.5879 29.69 97.9679 30.24 97.1679 30.7C96.3679 31.14 95.3079 31.36 93.9879 31.36ZM102.236 31C101.916 31 101.756 30.83 101.756 30.49C101.756 30.17 101.916 30.01 102.236 30.01C102.896 30.01 103.376 29.87 103.676 29.59C103.996 29.31 104.156 28.86 104.156 28.24V11.89C104.156 11.33 104.096 10.97 103.976 10.81C103.876 10.63 103.686 10.51 103.406 10.45C103.266 10.41 103.026 10.38 102.686 10.36C102.366 10.32 102.136 10.29 101.996 10.27C101.716 10.23 101.576 10.07 101.576 9.79C101.576 9.49 101.726 9.32 102.026 9.28C102.086 9.28 102.336 9.28 102.776 9.28C103.216 9.26 103.706 9.25 104.246 9.25C104.806 9.25 105.316 9.25 105.776 9.25C106.236 9.23 106.526 9.22 106.646 9.22C107.146 9.22 107.396 9.48 107.396 10V23.41C107.736 23.09 108.146 22.71 108.626 22.27C109.126 21.83 109.616 21.39 110.096 20.95C110.576 20.51 110.966 20.14 111.266 19.84C111.846 19.26 112.076 18.78 111.956 18.4C111.856 18 111.566 17.8 111.086 17.8C110.786 17.8 110.636 17.63 110.636 17.29C110.636 16.97 110.786 16.81 111.086 16.81C111.306 16.81 111.696 16.82 112.256 16.84C112.816 16.86 113.356 16.87 113.876 16.87C114.396 16.87 114.926 16.86 115.466 16.84C116.026 16.82 116.416 16.81 116.636 16.81C116.936 16.81 117.086 16.97 117.086 17.29C117.086 17.63 116.936 17.8 116.636 17.8C115.996 17.8 115.356 17.96 114.716 18.28C114.076 18.6 113.286 19.2 112.346 20.08C112.246 20.18 112.116 20.3 111.956 20.44C111.816 20.56 111.576 20.78 111.236 21.1C111.856 22.16 112.466 23.2 113.066 24.22C113.686 25.24 114.226 26.12 114.686 26.86C115.146 27.6 115.446 28.08 115.586 28.3C115.906 28.76 116.206 29.16 116.486 29.5C116.786 29.84 117.136 30.01 117.536 30.01C117.836 30.01 117.986 30.17 117.986 30.49C117.986 30.83 117.836 31 117.536 31C117.396 31 117.136 30.99 116.756 30.97C116.396 30.95 116.006 30.94 115.586 30.94C115.166 30.92 114.776 30.91 114.416 30.91C113.896 30.91 113.386 30.93 112.886 30.97C112.386 30.99 112.026 31 111.806 31C111.506 31 111.356 30.83 111.356 30.49C111.356 30.17 111.506 30.01 111.806 30.01C112.106 30.01 112.296 29.92 112.376 29.74C112.456 29.56 112.416 29.35 112.256 29.11C112.156 28.89 111.926 28.47 111.566 27.85C111.206 27.23 110.786 26.51 110.306 25.69C109.846 24.87 109.376 24.06 108.896 23.26C108.576 23.56 108.286 23.82 108.026 24.04C107.766 24.26 107.556 24.45 107.396 24.61V28.18C107.396 28.92 107.536 29.41 107.816 29.65C108.116 29.89 108.486 30.01 108.926 30.01C109.226 30.01 109.376 30.17 109.376 30.49C109.376 30.83 109.226 31 108.926 31C108.786 31 108.526 30.99 108.146 30.97C107.766 30.95 107.356 30.94 106.916 30.94C106.496 30.92 106.106 30.91 105.746 30.91C105.406 30.91 104.986 30.92 104.486 30.94C103.986 30.94 103.516 30.95 103.076 30.97C102.656 30.99 102.376 31 102.236 31ZM120.136 31C119.816 31 119.656 30.83 119.656 30.49C119.656 30.17 119.816 30.01 120.136 30.01C120.896 30.01 121.406 29.86 121.666 29.56C121.926 29.26 122.056 28.75 122.056 28.03V11.89C122.056 11.33 121.986 10.97 121.846 10.81C121.706 10.63 121.496 10.51 121.216 10.45C121.076 10.41 120.856 10.38 120.556 10.36C120.256 10.32 120.036 10.29 119.896 10.27C119.616 10.23 119.476 10.07 119.476 9.79C119.476 9.49 119.626 9.32 119.926 9.28C119.986 9.28 120.236 9.28 120.676 9.28C121.116 9.26 121.606 9.25 122.146 9.25C122.706 9.25 123.216 9.25 123.676 9.25C124.136 9.23 124.426 9.22 124.546 9.22C125.046 9.22 125.296 9.48 125.296 10V27.97C125.296 28.71 125.426 29.24 125.686 29.56C125.946 29.86 126.436 30.01 127.156 30.01C127.456 30.01 127.606 30.17 127.606 30.49C127.606 30.83 127.456 31 127.156 31C127.016 31 126.726 30.99 126.286 30.97C125.866 30.95 125.406 30.94 124.906 30.94C124.426 30.92 124.006 30.91 123.646 30.91C123.306 30.91 122.886 30.92 122.386 30.94C121.886 30.94 121.416 30.95 120.976 30.97C120.556 30.99 120.276 31 120.136 31ZM130.068 31C129.748 31 129.588 30.84 129.588 30.52C129.588 30.18 129.748 30.01 130.068 30.01C130.828 30.01 131.338 29.85 131.598 29.53C131.858 29.21 131.988 28.69 131.988 27.97V19.45C131.988 18.89 131.928 18.52 131.808 18.34C131.708 18.14 131.518 18.03 131.238 18.01C131.098 17.99 130.858 17.97 130.518 17.95C130.198 17.91 129.968 17.88 129.828 17.86C129.548 17.8 129.408 17.63 129.408 17.35C129.408 17.03 129.558 16.87 129.858 16.87C129.918 16.87 130.168 16.87 130.608 16.87C131.048 16.85 131.538 16.84 132.078 16.84C132.638 16.84 133.148 16.84 133.608 16.84C134.068 16.82 134.358 16.81 134.478 16.81C134.978 16.81 135.228 17.04 135.228 17.5V27.97C135.228 28.69 135.348 29.21 135.588 29.53C135.828 29.85 136.268 30.01 136.908 30.01C137.208 30.01 137.358 30.18 137.358 30.52C137.358 30.84 137.208 31 136.908 31C136.768 31 136.498 30.99 136.098 30.97C135.698 30.95 135.268 30.94 134.808 30.94C134.348 30.92 133.938 30.91 133.578 30.91C133.238 30.91 132.818 30.92 132.318 30.94C131.818 30.94 131.348 30.95 130.908 30.97C130.488 30.99 130.208 31 130.068 31ZM133.368 13.54C132.768 13.54 132.258 13.33 131.838 12.91C131.418 12.49 131.208 11.98 131.208 11.38C131.208 10.78 131.418 10.27 131.838 9.85C132.258 9.43 132.768 9.22 133.368 9.22C133.968 9.22 134.478 9.43 134.898 9.85C135.318 10.27 135.528 10.78 135.528 11.38C135.528 11.98 135.318 12.49 134.898 12.91C134.478 13.33 133.968 13.54 133.368 13.54ZM146.514 31.36C145.914 31.36 145.304 31.28 144.684 31.12C144.064 30.98 143.494 30.82 142.974 30.64C142.474 30.44 142.094 30.28 141.834 30.16C141.554 30.3 141.334 30.44 141.174 30.58C141.014 30.72 140.854 30.87 140.694 31.03C140.494 31.23 140.284 31.29 140.064 31.21C139.864 31.13 139.764 30.95 139.764 30.67V26.5C139.764 26.24 139.874 26.09 140.094 26.05C140.334 26.01 140.514 26.09 140.634 26.29C142.134 28.75 144.114 29.98 146.574 29.98C147.534 29.98 148.344 29.78 149.004 29.38C149.684 28.98 150.024 28.39 150.024 27.61C150.024 27.09 149.784 26.69 149.304 26.41C148.824 26.13 148.204 25.91 147.444 25.75C146.684 25.57 145.884 25.38 145.044 25.18C144.204 24.98 143.404 24.71 142.644 24.37C141.884 24.03 141.264 23.56 140.784 22.96C140.304 22.34 140.064 21.52 140.064 20.5C140.064 19.82 140.244 19.17 140.604 18.55C140.984 17.93 141.554 17.43 142.314 17.05C143.074 16.65 144.034 16.45 145.194 16.45C146.074 16.45 146.934 16.58 147.774 16.84C148.614 17.08 149.254 17.31 149.694 17.53C149.814 17.43 149.964 17.3 150.144 17.14C150.344 16.98 150.524 16.84 150.684 16.72C150.864 16.6 151.024 16.56 151.164 16.6C151.324 16.62 151.404 16.76 151.404 17.02V20.77C151.404 21.03 151.284 21.19 151.044 21.25C150.804 21.29 150.634 21.21 150.534 21.01C150.034 19.83 149.324 18.98 148.404 18.46C147.484 17.94 146.564 17.68 145.644 17.68C144.604 17.68 143.814 17.91 143.274 18.37C142.734 18.81 142.464 19.32 142.464 19.9C142.464 20.38 142.704 20.75 143.184 21.01C143.664 21.25 144.274 21.45 145.014 21.61C145.774 21.75 146.574 21.91 147.414 22.09C148.254 22.25 149.044 22.5 149.784 22.84C150.544 23.18 151.164 23.67 151.644 24.31C152.124 24.93 152.364 25.77 152.364 26.83C152.364 27.67 152.124 28.44 151.644 29.14C151.164 29.82 150.484 30.36 149.604 30.76C148.724 31.16 147.694 31.36 146.514 31.36ZM160.247 31.36C159.387 31.36 158.637 31.16 157.997 30.76C157.357 30.36 157.037 29.61 157.037 28.51V17.98H154.937C154.617 17.98 154.457 17.82 154.457 17.5V17.41C154.457 17.27 154.497 17.17 154.577 17.11C154.677 17.03 154.797 16.97 154.937 16.93C156.097 16.53 156.987 15.93 157.607 15.13C158.247 14.31 158.647 13.17 158.807 11.71C158.807 11.39 158.967 11.23 159.287 11.23H159.797C159.917 11.23 160.027 11.28 160.127 11.38C160.227 11.46 160.277 11.57 160.277 11.71V16.81H163.937C164.257 16.81 164.417 16.96 164.417 17.26V17.5C164.417 17.82 164.257 17.98 163.937 17.98H160.277V27.46C160.277 28.56 160.847 29.11 161.987 29.11C162.527 29.11 163.007 28.95 163.427 28.63C163.867 28.31 164.197 27.94 164.417 27.52C164.577 27.22 164.827 27.17 165.167 27.37C165.307 27.45 165.377 27.55 165.377 27.67C165.377 27.79 165.347 27.93 165.287 28.09C164.947 28.95 164.357 29.71 163.517 30.37C162.697 31.03 161.607 31.36 160.247 31.36Z" fill="#2B0F42"/>
</g>
<defs>
<clipPath id="clip0_17_921">
<rect width="166" height="34" fill="white"/>
</clipPath>
</defs>
</svg>
