<svg width="14" height="14" viewBox="0 0 14 14" fill="none" xmlns="http://www.w3.org/2000/svg">
<path d="M13.2151 4.80378L10.1722 4.04306C10.0608 4.0152 9.96239 3.94985 9.89349 3.85798L7.4 0.533333C7.2 0.266667 6.8 0.266667 6.6 0.533333L4.10651 3.85798C4.03761 3.94985 3.93919 4.0152 3.82778 4.04306L0.784862 4.80378C0.424269 4.89393 0.284608 5.33204 0.526501 5.61425L2.85871 8.33516C2.94884 8.44031 2.99132 8.57813 2.97603 8.71577L2.5863 12.2233C2.546 12.586 2.89518 12.8683 3.24135 12.7529L6.84189 11.5527C6.94452 11.5185 7.05548 11.5185 7.15811 11.5527L10.7586 12.7529C11.1048 12.8683 11.454 12.586 11.4137 12.2233L11.024 8.71577C11.0087 8.57813 11.0512 8.44031 11.1413 8.33516L13.4735 5.61425C13.7154 5.33204 13.5757 4.89393 13.2151 4.80378Z" fill="#FFE500" stroke="#FFE500" stroke-width="0.5"/>
</svg>
